<?xml version="1.0" encoding="UTF-8" standalone="no"?>
<!DOCTYPE svg PUBLIC "-//W3C//DTD SVG 1.1//EN"
 "http://www.w3.org/Graphics/SVG/1.1/DTD/svg11.dtd">
<!-- Generated by graphviz version 2.43.0 (0)
 -->
<!-- Title: latency Pages: 1 -->
<svg width="1213pt" height="180pt"
 viewBox="0.00 0.00 1213.00 180.00" xmlns="http://www.w3.org/2000/svg" xmlns:xlink="http://www.w3.org/1999/xlink">
<g id="graph0" class="graph" transform="scale(1 1) rotate(0) translate(18 162)">
<title>latency</title>
<polygon fill="white" stroke="transparent" points="-18,18 -18,-162 1195,-162 1195,18 -18,18"/>
<text text-anchor="middle" x="588.5" y="-122.4" font-family="DejaVu Sans" font-size="22.00">Matched p100 median latency (ms)</text>
<!-- chart -->
<g id="node1" class="node">
<title>chart</title>
<text text-anchor="start" x="34.5" y="-85.8" font-family="DejaVu Sans" font-size="14.00">Snapshot load</text>
<polygon fill="#7aa6c2" stroke="transparent" points="149.5,-77 149.5,-102 534.5,-102 534.5,-77 149.5,-77"/>
<text text-anchor="start" x="416.5" y="-85.8" font-family="DejaVu Sans" font-size="14.00">Baseline 21,354</text>
<polygon fill="#78b79f" stroke="transparent" points="544.5,-77 544.5,-102 1167.5,-102 1167.5,-77 544.5,-77"/>
<text text-anchor="start" x="978.5" y="-85.8" font-family="DejaVu Sans" font-size="14.00">Candidate 34,592 (+62%)</text>
<text text-anchor="start" x="15.5" y="-50.8" font-family="DejaVu Sans" font-size="14.00">Plan 1,107 scans</text>
<polygon fill="#7aa6c2" stroke="transparent" points="149.5,-42 149.5,-67 534.5,-67 534.5,-42 149.5,-42"/>
<text text-anchor="start" x="425.5" y="-50.8" font-family="DejaVu Sans" font-size="14.00">Baseline 2,319</text>
<polygon fill="#78b79f" stroke="transparent" points="544.5,-42 544.5,-67 1167.5,-67 1167.5,-42 544.5,-42"/>
<text text-anchor="start" x="994.5" y="-50.8" font-family="DejaVu Sans" font-size="14.00">Candidate 937 (&#45;59.6%)</text>
<text text-anchor="start" x="15.5" y="-18.2" font-family="DejaVu Sans" font-size="11.00"> &#160;&#160;&#160;&#160;&#160;&#160;&#160;Load and plan rows use separate linear scales. Three isolated repeats per mode. &#160;&#160;&#160;&#160;&#160;</text>
</g>
</g>
</svg>
